<svg xmlns="http://www.w3.org/2000/svg" viewBox="0 0 36.05 24.76">
    <defs>
        <style>.cls-1{fill:#343a40;}</style>
    </defs>
    <title>keys</title>
    <g id="Ebene_2" data-name="Ebene 2">
        <g id="text_innenseite" data-name="text innenseite">
            <circle class="cls-1" cx="12.48" cy="13.56" r="1.32"/>
            <circle class="cls-1" cx="23.4" cy="13.56" r="1.32"/>
            <circle class="cls-1" cx="17.98" cy="18.02" r="1.32"/>
            <circle class="cls-1" cx="17.98" cy="8.9" r="1.32"/>
            <path class="cls-1"
                  d="M.09,2.32a5.75,5.75,0,0,1,.33-.77A3.5,3.5,0,0,1,5.67,1.2l.08.08c.22-.19.42-.4.65-.57A4,4,0,0,1,8.22,0l.13,0h.8l.43.07a3.13,3.13,0,0,1,2.68,2.25,2.52,2.52,0,0,1-1.41,2.86,4.33,4.33,0,0,1-1.94.55l.23.08,1,.22c.12,0,.18.06.19.17s.08.46.12.69a1.14,1.14,0,0,1,1.31,0c.38.28.39.64,0,1.1L27.69,19.56l.5-.44-1.91-1.41.62-.55c.25-.21.25-.21.6-.09s.34.12.6-.1c.07-.06.08-.1,0-.17s-.19-.29-.3-.44l2-1.73,1.68,1.23-1.44,1.25.76.56,1.44-1.25,1.35,1-1.44,1.26.76.55L34.37,18l1.68,1.23L34.3,20.72c-.25.21-.25.21-.59.09s-.35-.12-.61.1c-.06.06-.07.11,0,.17s.2.29.3.43l-.87.77-1.92-1.41-.5.44,1.83,1.34-.32.29a2.13,2.13,0,0,0,.3,0,1.26,1.26,0,0,1,1.08.35.72.72,0,0,1,.15.9,1.22,1.22,0,0,1-.81.54h-.46s0,0,0,0a.94.94,0,0,1-.86-1c0-.05-.06-.12-.11-.21l-.31.27L10.5,9.05a1.12,1.12,0,0,1-1.25.16.77.77,0,0,1-.37-.43.66.66,0,0,1,.21-.69l-.9,0c-.12,0-.17,0-.2-.12-.13-.29-.27-.57-.4-.86a.6.6,0,0,0-.09-.13A3.08,3.08,0,0,1,4.75,9.87a4,4,0,0,1-4-1.39,2.51,2.51,0,0,1,.91-3.64v0l-.12-.06a2.57,2.57,0,0,1-1.14-1A7.59,7.59,0,0,1,.09,3ZM3.88,5.27A2.46,2.46,0,0,0,2.08,6a1.57,1.57,0,0,0-.44,1.06A1.9,1.9,0,0,0,3.16,8.8a2.69,2.69,0,0,0,2.53-.58,1.58,1.58,0,0,0-.06-2.34L6,5.56c0-.14-.18-.1-.29-.08-.51.07-.88-.13-1-.54A.88.88,0,0,1,5,4.26a1.58,1.58,0,0,1,1-.55c.57-.09,1,.28,1,.75a.69.69,0,0,0,0,.22l.47-.34a2.74,2.74,0,0,0,2.34.14,1.9,1.9,0,0,0,1.17-1.11c.37-1-.39-2-1.63-2.28S6.38,1.59,6.48,3H4.86A1.26,1.26,0,0,0,4.3,1.61,2,2,0,0,0,3,1.29c-.89.09-1.61.7-1.5,1.53a1.35,1.35,0,0,0,.77,1A2.2,2.2,0,0,0,3.7,4Z"/>
            <path class="cls-1"
                  d="M3.72,24.76l-.13-.05c-.57-.17-.88-.63-.73-1.07A1.16,1.16,0,0,1,4.16,23a1.22,1.22,0,0,0,.27-.06l-.3-.27L6,21.31l-.5-.44L3.54,22.28l-.88-.77a3,3,0,0,1,.25-.34C3,21,3,21,2.85,20.83a.32.32,0,0,0-.41-.06c-.09.05-.2.07-.29.11a.2.2,0,0,1-.26,0L.8,19.9,0,19.19,1.68,18l1.44,1.25.76-.55L2.44,17.4l1.35-1,1.44,1.25L6,17.11,4.55,15.86l1.68-1.23,2,1.73a2.93,2.93,0,0,1-.18.26c-.19.28-.19.28.09.5a.31.31,0,0,0,.19,0L8.78,17a.26.26,0,0,1,.15,0c.28.23.56.48.84.72L7.85,19.12l.51.44L24.26,8c-.36-.44-.37-.77-.05-1a1,1,0,0,1,.67-.24,1.11,1.11,0,0,1,.71.24c0-.19.06-.35.08-.52s0-.31.42-.39l1.06-.24c-.24,0-.47-.06-.69-.11-1.69-.35-2.77-1.45-2.74-2.84A2.72,2.72,0,0,1,25.53.37,4.8,4.8,0,0,1,26.89,0h.81a10.39,10.39,0,0,1,1.13.29,3.29,3.29,0,0,1,1.44,1c.21-.17.41-.36.65-.52,1.73-1.18,4.51-.41,5,1.37a1.19,1.19,0,0,0,.08.2V3a.36.36,0,0,0,0,.11A2.35,2.35,0,0,1,35,4.45c-.2.14-.42.26-.63.39a2.49,2.49,0,0,1,1,3.44,3.75,3.75,0,0,1-3.67,1.64,3.69,3.69,0,0,1-2.31-1,2.58,2.58,0,0,1-.86-2c-.14.24-.25.48-.37.73s-.18.39-.71.4H27c.35.46.32.83-.07,1.08a1.09,1.09,0,0,1-1.34-.1L5.46,23.84l-.32-.28a1.11,1.11,0,0,0-.07.23.77.77,0,0,1-.21.6,1.37,1.37,0,0,1-.68.37ZM29.05,4.68c0-.08.1-.14.09-.18-.14-.48.37-1,1.21-.73a1.29,1.29,0,0,1,1,1c.07.46-.38.8-.95.72-.11,0-.24-.07-.31.07l.37.32a1.68,1.68,0,0,0,.72,2.85,2.55,2.55,0,0,0,3.09-.93,1.47,1.47,0,0,0-.2-1.7,2.43,2.43,0,0,0-1.87-.82L32.34,4a2.06,2.06,0,0,0,1.77-.38,1.21,1.21,0,0,0,.48-.92,1.53,1.53,0,0,0-1.54-1.4,2,2,0,0,0-1.47.46A1.22,1.22,0,0,0,31.19,3H29.56a1.77,1.77,0,0,0-1.19-1.7,2.65,2.65,0,0,0-1.82-.13,1.75,1.75,0,0,0-1.38,2.39,2.57,2.57,0,0,0,3.47.8Z"/>
        </g>
    </g>
</svg>