<svg xmlns="http://www.w3.org/2000/svg" viewBox="0 0 209.92 39.38">
    <defs>
        <style>.cls-1{fill:#343a40;}</style>
    </defs>
    <title>logo_text</title>
    <g id="Ebene_2" data-name="Ebene 2">
        <g id="logo_parts" data-name="logo parts">
            <path class="cls-1"
                  d="M45.31,0a.84.84,0,0,1,.82.85V38.41a.83.83,0,0,1-.82.8H34.51a.88.88,0,0,1-.88-.8V21.71L27.74,38.36a1.8,1.8,0,0,1-1.46.85H19.85a1.8,1.8,0,0,1-1.46-.85L12.5,21.71v16.7a.88.88,0,0,1-.88.8H.82a.83.83,0,0,1-.82-.8V.85A.84.84,0,0,1,.82,0H13a2.48,2.48,0,0,1,2,1.14l8,21.7,8.06-21.7a2.48,2.48,0,0,1,2-1.14Z"/>
            <path class="cls-1"
                  d="M60.23,6.17a.74.74,0,0,1,.77.72V38.54a.73.73,0,0,1-.77.67H51.16a.75.75,0,0,1-.72-.67V6.89a.76.76,0,0,1,.72-.72Z"/>
            <path class="cls-1"
                  d="M85.8,30.6a.68.68,0,0,1,.7.67l-.75,7.27a.89.89,0,0,1-.85.67H65.62a.79.79,0,0,1-.8-.67V6.94a.79.79,0,0,1,.8-.72h9.45a.78.78,0,0,1,.8.72V30.6Z"/>
            <path class="cls-1"
                  d="M111.05,30.6a.68.68,0,0,1,.7.67L111,38.54a.9.9,0,0,1-.87.67H90.55a.8.8,0,0,1-.82-.67V6.93a.8.8,0,0,1,.82-.72h9.6a.79.79,0,0,1,.81.72V30.6Z"/>
            <path class="cls-1"
                  d="M139.48,30.6a.73.73,0,0,1,.77.62v7.32a.77.77,0,0,1-.77.67H115.61a1,1,0,0,1-.83-.72V6.88a.63.63,0,0,1,.72-.67h23.36a.78.78,0,0,1,.83.67V14.1a.75.75,0,0,1-.83.72h-13.4V18.6h10.89c.46,0,.72.33.67.62l-.72,6.69a.89.89,0,0,1-.88.63h-10V30.6Z"/>
            <path class="cls-1"
                  d="M171.5,6.29c.46,0,.77.33.71.67l-.77,7.25a.85.85,0,0,1-.82.67H163V38.54a.72.72,0,0,1-.72.67h-9.08a.77.77,0,0,1-.78-.67V14.88h-8.52a.71.71,0,0,1-.72-.67V7a.75.75,0,0,1,.72-.71Z"/>
            <path class="cls-1"
                  d="M175.49,7.49a1.22,1.22,0,0,1,1.34-1.2l6,0c.61,0,.9.33.79.86l-2.45,6.4a1.88,1.88,0,0,1-1.4,1.3l-3.76.69c-.73.14-1.18,0-1.13-.43Z"/>
            <path class="cls-1"
                  d="M187.18,29a.62.62,0,0,1,1-.37,22.28,22.28,0,0,0,7.45,2.21c1.72,0,2.84-.69,2.84-1.75,0-2.71-15.06-2.57-15.06-12.6,0-6.17,5.41-10.26,13.56-10.26a26,26,0,0,1,12,3.31c.43.23.59.6.43.83L206,16.89a.61.61,0,0,1-1,.36,24.34,24.34,0,0,0-7.56-2.39c-1.66,0-2.74.65-2.74,1.66,0,2.71,15.18,2.53,15.18,12.65,0,6.12-5.53,10.21-13.78,10.21-4.51,0-9.23-1.19-11.91-3-.43-.28-.59-.6-.43-.83Z"/>
        </g>
    </g>
</svg>